# Max2Obj Version 4.0 Mar 10th, 2001
#
# object shortsleeve to come ...
#
v  -9.674088 131.047165 -8.180655
v  -14.853569 130.390289 6.320558
v  -8.195537 131.149841 11.888079
v  -7.667643 120.870468 -6.862447
v  -14.220288 120.813133 5.121159
v  -8.572046 120.411781 10.276305
v  -11.285228 139.654816 -10.954058
v  -15.747420 139.817017 5.546883
v  -9.636748 138.468918 11.549717
v  -16.811031 146.243607 4.290038
v  -10.420619 147.395706 10.457679
v  -12.625897 150.032715 -11.629513
v  -12.463554 155.797119 -9.370251
v  -6.614265 148.502731 -13.092021
v  -6.292001 157.067886 -11.233937
v  -15.849259 142.369461 -5.933131
v  -13.200713 159.272293 -3.971090
v  -7.730159 162.368347 -2.818505
v  -15.619560 155.625076 2.178386
v  -8.455843 155.286835 6.068118
v  -5.543565 160.564377 1.152841
v  -5.388499 161.948013 -8.581980
v  -15.625908 137.062485 -3.617672
v  -6.607821 166.951187 -2.418211
v  -4.418390 167.521698 -7.311618
v  -3.729260 164.107697 1.944503
v  -18.556364 146.418320 2.707935
v  -15.698530 146.484146 -10.624576
v  -17.641859 153.606918 -9.312040
v  -16.191160 143.456390 -5.557207
v  -20.672770 156.254013 -4.263125
v  -20.093876 153.377411 1.255468
v  -19.552406 143.033798 1.292559
v  -18.660786 142.704742 -9.358850
v  -23.817516 144.313705 -9.024710
v  -27.244053 142.928940 -4.012254
v  -24.204033 143.433456 1.042453
v  -19.261841 145.303391 1.425023
v  -17.574320 144.993362 -10.205257
v  -21.251949 150.369339 -9.823054
v  -16.531656 142.639526 -4.759549
v  -24.942184 152.515167 -4.208312
v  -22.939699 149.852051 1.490852
v  0.000000 132.430313 13.152997
v  0.000000 160.036789 3.959773
v  -4.676600 147.580612 11.743669
v  -13.688500 120.841797 -2.964110
v  -14.819093 131.199295 -2.209838
v  0.000000 123.044563 12.906065
v  -14.322326 144.534698 -9.899858
v  -24.155298 146.383041 1.150521
v  -23.444647 146.852371 -9.307751
v  -26.944620 147.017822 -4.110283
v  0.000000 138.850571 -11.912676
v  0.000000 148.209198 -12.990906
v  0.000000 167.251465 -8.320364
v  0.000000 162.965790 -9.572830
v  -5.653311 113.098022 -9.493886
v  -15.915438 109.885025 3.429334
v  -9.345687 106.752579 9.560552
v  -13.951006 112.463028 -5.639289
v  -21.227037 136.353989 0.556183
v  -25.306213 137.972672 -0.044974
v  -25.611418 137.587448 -8.663680
v  -21.189651 135.028625 -9.075477
v  -18.688852 135.157776 -4.603783
v  -28.135395 138.472961 -4.186462
v  0.000000 113.097527 -9.847531
v  -22.561861 129.754349 1.594813
v  -27.509289 131.717575 0.865700
v  -27.737160 131.731262 -9.587498
v  -22.519381 130.125153 -10.086944
v  -19.483423 128.303543 -4.663452
v  -30.940664 132.324356 -4.157303
v  -8.644358 107.578697 -12.694216
v  -18.004269 103.665840 3.130498
v  -11.524419 100.622643 10.794209
v  -14.713471 106.845108 -8.528470
v  0.000000 120.501320 -7.448944
v  5.653311 113.098022 -9.493886
v  7.667644 120.870468 -6.862447
v  13.951006 112.463028 -5.639289
v  13.688500 120.841797 -2.964110
v  14.220288 120.813133 5.121159
v  15.915439 109.885025 3.429334
v  8.572046 120.411781 10.276305
v  9.674088 131.047165 -8.180655
v  0.000000 129.209213 -8.861284
v  14.819093 131.199295 -2.209838
v  14.853569 130.390289 6.320558
v  8.195537 131.149841 11.888079
v  11.285229 139.654816 -10.954058
v  15.625908 137.062485 -3.617672
v  15.849260 142.369461 -5.933131
v  9.636748 138.468918 11.549717
v  15.747420 139.817017 5.546883
v  10.420619 147.395706 10.457679
v  0.000000 147.527512 11.700139
v  4.676600 147.580612 11.743669
v  0.000000 138.837692 12.908384
v  8.455843 155.286835 6.068118
v  15.619560 155.625076 2.178386
v  0.000000 154.048386 8.027085
v  6.614265 148.502731 -13.092021
v  0.000000 156.665024 -11.652201
v  6.292001 157.067886 -11.233937
v  12.625897 150.032715 -11.629513
v  12.463554 155.797119 -9.370251
v  14.322326 144.534698 -9.899858
v  16.811031 146.243607 4.290038
v  5.388499 161.948013 -8.581980
v  13.200713 159.272293 -3.971090
v  6.607821 166.951187 -2.418211
v  4.418390 167.521698 -7.311618
v  7.730159 162.272949 -4.121533
v  3.729260 164.107697 1.944503
v  5.543565 160.564377 1.152841
v  0.000000 163.418091 3.501833
v  20.093876 153.377411 1.255468
v  18.556364 146.418320 2.707935
v  15.698530 146.484146 -10.624576
v  17.641859 153.606918 -9.312040
v  16.191160 143.456390 -5.557207
v  20.672770 156.254013 -4.263125
v  24.204033 143.433456 1.042453
v  19.552406 143.033798 1.292559
v  24.155298 146.383041 1.150521
v  18.660786 142.704742 -9.358850
v  23.444647 146.852371 -9.307751
v  17.574320 144.993362 -10.205257
v  16.531656 142.639526 -4.759549
v  19.261841 145.303391 1.425023
v  23.817516 144.313705 -9.024710
v  27.244053 142.928940 -4.012254
v  26.944620 147.017822 -4.110283
v  22.939701 149.852051 1.490852
v  21.251949 150.369339 -9.823054
v  24.942184 152.515167 -4.208312
v  9.345687 106.752579 9.560552
v  0.000000 116.915237 12.784960
v  0.000000 105.688904 11.181005
v  21.227037 136.353989 0.556183
v  25.306213 137.972672 -0.044974
v  25.611418 137.587448 -8.663680
v  21.189651 135.028625 -9.075477
v  18.688852 135.157776 -4.603783
v  28.135395 138.472961 -4.186462
v  27.509289 131.717575 0.865700
v  22.561863 129.754349 1.594813
v  22.519381 130.125153 -10.086944
v  27.737160 131.731262 -9.587498
v  19.483423 128.303543 -4.663452
v  30.940664 132.324356 -4.157303
v  0.000000 107.578201 -14.046832
v  8.644358 107.578697 -12.694216
v  14.713471 106.845108 -8.528470
v  11.524419 100.622643 10.794209
v  0.000000 99.558968 11.092043
v  18.004269 103.665840 3.130498
# 159 vertices

vt  0.940857 0.785091 1.155421
vt  0.849356 0.773380 1.155416
vt  0.810459 0.231015 1.155410
vt  0.880906 0.226246 1.155412
vt  0.940857 0.850682 1.155427
vt  0.863077 0.861307 1.155425
vt  0.799876 0.141685 1.155418
vt  0.871533 0.139056 1.155419
vt  0.940857 0.715947 1.155415
vt  0.837170 0.699163 1.155407
vt  0.813037 0.303904 1.155403
vt  0.871317 0.283624 1.155406
vt  0.797624 0.369075 1.155397
vt  0.872062 0.354404 1.155401
vt  0.940857 0.662170 1.155410
vt  0.821310 0.606166 1.155393
vt  0.940857 0.623226 1.155410
vt  0.845802 0.560397 1.155394
vt  0.869067 0.636740 1.155401
vt  0.894130 0.584384 1.155401
vt  0.764396 0.678722 1.155405
vt  0.862533 0.509025 1.155394
vt  0.939873 0.515539 1.155405
vt  0.835464 0.448997 1.155392
vt  0.893933 0.424316 1.155401
vt  0.932418 0.473223 1.155405
vt  0.924534 0.562656 1.155403
vt  0.774953 0.730224 1.155414
vt  0.990053 0.573368 1.155416
vt  0.976071 0.518827 1.155412
vt  0.975615 0.550256 1.155412
vt  0.976628 0.482964 1.155413
vt  0.771618 0.386200 1.155387
vt  0.777459 0.617012 1.155389
vt  0.807187 0.553704 1.155385
vt  0.747111 0.661504 1.155397
vt  0.806701 0.499200 1.155383
vt  0.800132 0.446111 1.155383
vt  0.715001 0.401388 1.155375
vt  0.715596 0.589856 1.155374
vt  0.715568 0.544554 1.155365
vt  0.693244 0.493413 1.155362
vt  0.707307 0.442787 1.155365
vt  0.741475 0.395202 1.155379
vt  0.744257 0.602104 1.155379
vt  0.769410 0.552217 1.155376
vt  0.715623 0.648684 1.155388
vt  0.768330 0.494192 1.155374
vt  0.763119 0.440605 1.155375
vt  0.954445 0.234380 1.155417
vt  0.954445 0.342344 1.155413
vt  0.954445 0.397304 1.155410
vt  0.967223 0.441759 1.155413
vt  0.991803 0.463885 1.155416
vt  0.955466 0.597977 1.155411
vt  0.917346 0.345530 1.155406
vt  0.799612 0.871210 1.155427
vt  0.774683 0.786160 1.155420
vt  0.954445 0.114955 1.155426
vt  0.954445 0.162103 1.155421
vt  0.794383 0.648795 1.155397
vt  0.734438 0.442317 1.155370
vt  0.737685 0.546821 1.155370
vt  0.726882 0.493031 1.155367
vt  0.954445 0.268139 1.155415
vt  0.719384 0.324766 1.155402
vt  0.717034 0.297386 1.155407
vt  0.720739 0.329003 1.155396
vt  0.708470 0.339624 1.155388
vt  0.725230 0.144305 1.155422
vt  0.732439 0.239097 1.155414
vt  0.896883 0.925050 1.155430
vt  0.786735 0.046475 1.155426
vt  0.868942 0.024201 1.155428
vt  0.954445 0.022957 1.155429
vt  0.820496 0.943158 1.155431
vt  0.705572 0.069337 1.155428
vt  0.651701 0.412479 1.155368
vt  0.655253 0.448790 1.155361
vt  0.651625 0.538707 1.155360
vt  0.640325 0.575710 1.155369
vt  0.644182 0.613620 1.155385
vt  0.644182 0.375337 1.155383
vt  0.651075 0.492141 1.155357
vt  0.940857 0.911903 1.155432
vt  0.955302 0.979720 1.155361
vt  0.955040 0.979604 1.155368
vt  0.954202 0.980127 1.155369
vt  0.955035 0.980008 1.155360
vt  0.954486 0.980248 1.155385
vt  0.954486 0.979485 1.155383
vt  0.954994 0.979859 1.155357
vt  0.954457 0.979567 1.155432
vt  0.954539 0.979560 1.155430
vt  0.954682 0.979550 1.155431
vt  0.954745 0.980044 1.155426
vt  0.954591 0.980057 1.155428
vt  0.954431 0.980057 1.155429
vt  0.954897 0.980032 1.155428
vt  0.940857 0.850682 1.155427
vt  0.940857 0.911903 1.155432
vt  0.896883 0.925050 1.155430
vt  0.863077 0.861307 1.155425
vt  0.820496 0.943158 1.155431
vt  0.799612 0.871210 1.155427
vt  0.799876 0.141685 1.155418
vt  0.786735 0.046475 1.155426
vt  0.871533 0.139056 1.155419
vt  0.849356 0.773380 1.155416
vt  0.940857 0.785091 1.155421
vt  0.774683 0.786160 1.155420
vt  0.810459 0.231015 1.155410
vt  0.954445 0.162103 1.155421
vt  0.880906 0.226246 1.155412
vt  0.837170 0.699163 1.155407
vt  0.940857 0.715947 1.155415
vt  0.774953 0.730224 1.155414
vt  0.764396 0.678722 1.155405
vt  0.871317 0.283624 1.155406
vt  0.813037 0.303904 1.155403
vt  0.872062 0.354404 1.155401
vt  0.954445 0.342344 1.155413
vt  0.917346 0.345530 1.155406
vt  0.954445 0.268139 1.155415
vt  0.893933 0.424316 1.155401
vt  0.835464 0.448997 1.155392
vt  0.954445 0.397304 1.155410
vt  0.869067 0.636740 1.155401
vt  0.940857 0.662170 1.155410
vt  0.940857 0.623226 1.155410
vt  0.894130 0.584384 1.155401
vt  0.821310 0.606166 1.155393
vt  0.845802 0.560397 1.155394
vt  0.794383 0.648795 1.155397
vt  0.719384 0.324766 1.155402
vt  0.717034 0.297386 1.155407
vt  0.797624 0.369075 1.155397
vt  0.924534 0.562656 1.155403
vt  0.862533 0.509025 1.155394
vt  0.976071 0.518827 1.155412
vt  0.975615 0.550256 1.155412
vt  0.939873 0.515539 1.155405
vt  0.976628 0.482964 1.155413
vt  0.932418 0.473223 1.155405
vt  0.967223 0.441759 1.155413
vt  0.991803 0.463885 1.155416
vt  0.990053 0.573368 1.155416
vt  0.955466 0.597977 1.155411
vt  0.800132 0.446111 1.155383
vt  0.771618 0.386200 1.155387
vt  0.777459 0.617012 1.155389
vt  0.807187 0.553704 1.155385
vt  0.747111 0.661504 1.155397
vt  0.720739 0.329003 1.155396
vt  0.806701 0.499200 1.155383
vt  0.707307 0.442787 1.155365
vt  0.715001 0.401388 1.155375
vt  0.734438 0.442317 1.155370
vt  0.715596 0.589856 1.155374
vt  0.737685 0.546821 1.155370
vt  0.744257 0.602104 1.155379
vt  0.715623 0.648684 1.155388
vt  0.708470 0.339624 1.155388
vt  0.741475 0.395202 1.155379
vt  0.715568 0.544554 1.155365
vt  0.693244 0.493413 1.155362
vt  0.726882 0.493031 1.155367
vt  0.763119 0.440605 1.155375
vt  0.769410 0.552217 1.155376
vt  0.768330 0.494192 1.155374
vt  0.954445 0.234380 1.155417
vt  0.705572 0.069337 1.155428
vt  0.725230 0.144305 1.155422
vt  0.732439 0.239097 1.155414
vt  0.868942 0.024201 1.155428
vt  0.954445 0.114955 1.155426
vt  0.954445 0.022957 1.155429
vt  0.651701 0.412479 1.155368
vt  0.655253 0.448790 1.155361
vt  0.651625 0.538707 1.155360
vt  0.640325 0.575710 1.155369
vt  0.644182 0.613620 1.155385
vt  0.644182 0.375337 1.155383
vt  0.651075 0.492141 1.155357
vt  0.955302 0.979720 1.155361
vt  0.955040 0.979604 1.155368
vt  0.954202 0.980127 1.155369
vt  0.955035 0.980008 1.155360
vt  0.954486 0.980248 1.155385
vt  0.954486 0.979485 1.155383
vt  0.954994 0.979859 1.155357
vt  0.954457 0.979567 1.155432
vt  0.954539 0.979560 1.155430
vt  0.954682 0.979550 1.155431
vt  0.954591 0.980057 1.155428
vt  0.954431 0.980057 1.155429
vt  0.954745 0.980044 1.155426
vt  0.954897 0.980032 1.155428
vt  0.955040 0.979604 1.155368
vt  0.955302 0.979720 1.155361
vt  0.955035 0.980008 1.155360
vt  0.954202 0.980127 1.155369
vt  0.954486 0.980248 1.155385
vt  0.954486 0.979485 1.155383
vt  0.954994 0.979859 1.155357
vt  0.955040 0.979604 1.155368
vt  0.955302 0.979720 1.155361
vt  0.955035 0.980008 1.155360
vt  0.954202 0.980127 1.155369
vt  0.954486 0.980248 1.155385
vt  0.954486 0.979485 1.155383
vt  0.954994 0.979859 1.155357
vt  0.954539 0.979560 1.155430
vt  0.954745 0.980044 1.155426
vt  0.954591 0.980057 1.155428
vt  0.954431 0.980057 1.155429
vt  0.954682 0.979550 1.155431
vt  0.954897 0.980032 1.155428
vt  0.954457 0.979567 1.155432
vt  0.954457 0.979567 1.155432
vt  0.954539 0.979560 1.155430
vt  0.954682 0.979550 1.155431
vt  0.954745 0.980044 1.155426
vt  0.954897 0.980032 1.155428
vt  0.954591 0.980057 1.155428
vt  0.954431 0.980057 1.155429
# 226 texture vertices

vn  -0.452979 -0.244492 -0.857341
vn  -0.895976 -0.073584 0.437963
vn  -0.409769 -0.052082 0.910701
vn  -0.313940 0.043271 -0.948456
vn  -0.919824 -0.025150 0.391525
vn  -0.485886 -0.067804 0.871388
vn  -0.462387 -0.262701 -0.846869
vn  -0.905061 -0.072375 0.419078
vn  -0.460920 -0.002975 0.887437
vn  -0.787801 -0.089799 0.609348
vn  -0.452455 0.260665 0.852841
vn  -0.262187 0.074728 -0.962120
vn  -0.355760 0.562821 -0.746102
vn  -0.125800 0.016004 -0.991927
vn  -0.178978 0.382285 -0.906546
vn  -0.908503 -0.234170 -0.346103
vn  -0.450845 0.891882 -0.035846
vn  -0.777655 0.599081 0.190666
vn  -0.397182 0.673940 0.622938
vn  -0.249499 0.653641 0.714495
vn  -0.503181 0.502586 0.703005
vn  -0.449662 0.480643 -0.752852
vn  -0.933716 -0.206386 -0.292540
vn  -0.971737 0.229815 0.053962
vn  -0.611102 0.275495 -0.742062
vn  -0.594323 0.096928 0.798364
vn  -0.470768 -0.502611 0.725093
vn  -0.106585 -0.312084 -0.944057
vn  -0.312198 0.518208 -0.796237
vn  -0.247440 -0.805194 -0.538921
vn  -0.534486 0.837392 -0.114451
vn  -0.479831 0.513151 0.711645
vn  0.491785 -0.156626 0.856514
vn  0.427755 -0.318551 -0.845902
vn  -0.503952 0.020594 -0.863486
vn  -0.991235 0.131930 0.006883
vn  -0.509601 -0.021820 0.860134
vn  0.169965 -0.477429 0.862075
vn  0.198839 -0.445231 -0.873059
vn  -0.394859 0.324821 -0.859405
vn  0.950721 -0.299840 0.078897
vn  -0.820566 0.566890 -0.072847
vn  -0.551462 0.247422 0.796663
vn  -0.000000 0.003927 0.999992
vn  -0.000000 0.393290 0.919415
vn  -0.112446 0.315937 0.942093
vn  -0.879495 0.041057 -0.474135
vn  -0.938676 -0.128785 -0.319846
vn  -0.000000 -0.062271 0.998059
vn  -0.545265 -0.365975 -0.754154
vn  -0.577365 0.060142 0.814268
vn  -0.548598 0.082925 -0.831964
vn  -0.979068 0.200142 -0.036997
vn  -0.000000 -0.232715 -0.972545
vn  -0.000000 0.017350 -0.999849
vn  0.000000 0.267877 -0.963453
vn  -0.000000 0.295716 -0.955276
vn  -0.214559 0.441823 -0.871067
vn  -0.920114 0.201462 0.335863
vn  -0.381603 0.114782 0.917172
vn  -0.794622 0.303335 -0.525893
vn  0.470961 -0.095533 0.876966
vn  -0.528463 0.122591 0.840059
vn  -0.491039 0.199258 -0.848043
vn  0.496698 -0.049247 -0.866525
vn  0.977869 -0.209202 0.002744
vn  -0.949930 0.311318 0.026720
vn  -0.000000 0.466186 -0.884687
vn  0.521510 0.028726 0.852762
vn  -0.446796 0.281020 0.849353
vn  -0.461596 0.296715 -0.835996
vn  0.490825 0.031922 -0.870673
vn  0.992301 -0.123271 -0.011963
vn  -0.909334 0.415019 0.029501
vn  -0.317713 0.555418 -0.768485
vn  -0.899579 0.267404 0.345329
vn  -0.333145 0.261502 0.905887
vn  -0.777745 0.367731 -0.509791
vn  -0.000000 0.087942 -0.996126
vn  0.214559 0.441823 -0.871067
vn  0.313940 0.043271 -0.948456
vn  0.794622 0.303335 -0.525893
vn  0.879495 0.041057 -0.474135
vn  0.919824 -0.025150 0.391525
vn  0.920114 0.201462 0.335863
vn  0.485886 -0.067804 0.871388
vn  0.452979 -0.244492 -0.857341
vn  -0.000000 -0.229172 -0.973386
vn  0.938676 -0.128785 -0.319846
vn  0.895976 -0.073584 0.437963
vn  0.409769 -0.052082 0.910701
vn  0.462387 -0.262701 -0.846869
vn  0.933716 -0.206386 -0.292540
vn  0.908503 -0.234169 -0.346103
vn  0.460920 -0.002975 0.887437
vn  0.905061 -0.072375 0.419078
vn  0.452455 0.260665 0.852841
vn  0.000000 0.318970 0.947765
vn  0.112446 0.315937 0.942093
vn  -0.000000 0.060304 0.998180
vn  0.249499 0.653641 0.714495
vn  0.397182 0.673940 0.622938
vn  0.000000 0.584209 0.811603
vn  0.125800 0.016004 -0.991927
vn  0.000000 0.291907 -0.956447
vn  0.178978 0.382285 -0.906546
vn  0.262187 0.074728 -0.962120
vn  0.355760 0.562821 -0.746102
vn  0.545265 -0.365975 -0.754154
vn  0.787801 -0.089799 0.609348
vn  0.440026 0.475292 -0.761888
vn  0.444485 0.895206 -0.032245
vn  0.981780 0.169214 0.086455
vn  0.611102 0.275495 -0.742062
vn  0.749295 0.662097 0.013556
vn  0.632249 0.083976 0.770201
vn  0.517433 0.537828 0.665585
vn  -0.000000 0.084860 0.996393
vn  0.479831 0.513151 0.711645
vn  0.470768 -0.502611 0.725093
vn  0.106585 -0.312084 -0.944057
vn  0.312198 0.518208 -0.796237
vn  0.247441 -0.805194 -0.538921
vn  0.534486 0.837392 -0.114451
vn  0.509601 -0.021820 0.860134
vn  -0.491785 -0.156626 0.856514
vn  0.577365 0.060142 0.814268
vn  -0.427755 -0.318552 -0.845902
vn  0.548598 0.082925 -0.831964
vn  -0.198839 -0.445231 -0.873059
vn  -0.950721 -0.299840 0.078897
vn  -0.169965 -0.477429 0.862075
vn  0.503952 0.020594 -0.863486
vn  0.991235 0.131930 0.006883
vn  0.979068 0.200142 -0.036997
vn  0.551462 0.247422 0.796663
vn  0.394859 0.324821 -0.859405
vn  0.820566 0.566890 -0.072847
vn  0.381603 0.114782 0.917172
vn  0.000000 -0.054867 0.998494
vn  0.000000 -0.074131 0.997249
vn  -0.470961 -0.095533 0.876966
vn  0.528463 0.122591 0.840059
vn  0.491039 0.199258 -0.848043
vn  -0.496698 -0.049247 -0.866525
vn  -0.977869 -0.209202 0.002744
vn  0.949930 0.311318 0.026720
vn  0.446796 0.281020 0.849353
vn  -0.521510 0.028726 0.852762
vn  -0.490825 0.031922 -0.870673
vn  0.461596 0.296715 -0.835996
vn  -0.992301 -0.123271 -0.011962
vn  0.909334 0.415019 0.029501
vn  -0.000000 0.577434 -0.816437
vn  0.317713 0.555418 -0.768485
vn  0.777745 0.367731 -0.509791
vn  0.333145 0.261502 0.905887
vn  -0.000000 0.068483 0.997652
vn  0.899579 0.267404 0.345329
# 159 vertex normals

g shortsleeve
s 3
f 79/5/79 68/85/68 58/72/58 4/6/4
f 61/76/61 47/57/47 4/6/4 58/72/58
f 6/8/6 5/7/5 59/73/59 60/74/60
f 79/5/79 4/6/4 1/2/1 88/1/88
f 1/2/1 4/6/4 47/57/47 48/58/48
f 2/3/2 5/7/5 6/8/6 3/4/3
f 3/4/3 6/8/6 49/60/49 44/50/44
f 7/10/7 54/9/54 88/1/88 1/2/1
f 3/4/3 9/12/9 8/11/8 2/3/2
f 8/11/8 9/12/9 11/14/11 10/13/10
f 20/25/20 19/24/19 11/14/11 46/56/46
f 46/56/46 98/51/98 103/52/103 20/25/20
f 14/19/14 55/15/55 54/9/54 7/10/7
f 105/17/105 55/15/55 14/19/14 15/20/15
f 15/20/15 14/19/14 12/16/12 13/18/13
f 10/13/10 16/66/16 23/67/23 8/11/8
f 13/18/13 17/22/17 22/27/22 15/20/15
f 24/30/24 25/31/25 22/27/22 18/23/18
f 26/32/26 24/30/24 18/23/18 21/26/21
f 21/26/21 20/25/20 103/52/103 45/53/45
f 118/54/118 26/32/26 21/26/21 45/53/45
f 56/29/56 57/55/57 22/27/22 25/31/25
f 105/17/105 15/20/15 22/27/22 57/55/57
f 20/25/20 21/26/21 17/22/17 19/24/19
f 32/38/32 27/33/27 10/13/10 19/24/19
f 28/34/28 29/35/29 12/16/12 50/61/50
f 27/33/27 30/68/30 16/66/16 10/13/10
f 29/35/29 31/37/31 17/22/17 13/18/13
f 31/37/31 32/38/32 19/24/19 17/22/17
f 51/62/51 37/43/37 33/39/33 38/44/38
f 52/63/52 39/45/39 34/40/34 35/41/35
f 53/64/53 52/63/52 35/41/35 36/42/36
f 53/64/53 36/42/36 37/43/37 51/62/51
f 43/49/43 38/44/38 27/33/27 32/38/32
f 40/46/40 29/35/29 28/34/28 39/45/39
f 39/45/39 28/34/28 30/36/30 41/47/41
f 41/69/41 30/68/30 27/33/27 38/44/38
f 29/35/29 40/46/40 42/48/42 31/37/31
f 42/48/42 43/49/43 32/38/32 31/37/31
f 46/56/46 11/14/11 9/12/9 100/65/100
f 47/70/47 61/77/61 59/73/59 5/7/5
f 48/71/48 47/70/47 5/7/5 2/3/2
f 8/11/8 23/67/23 48/71/48 2/3/2
f 140/59/140 6/8/6 60/74/60 141/75/141
f 50/61/50 12/16/12 14/19/14 7/10/7
f 52/63/52 53/64/53 42/48/42 40/46/40
f 42/48/42 53/64/53 51/62/51 43/49/43
f 37/43/37 63/79/63 62/78/62 33/39/33
f 34/40/34 65/81/65 64/80/64 35/41/35
f 66/82/66 65/81/65 34/40/34 41/47/41
f 33/39/33 62/78/62 66/83/66 41/69/41
f 64/80/64 67/84/67 36/42/36 35/41/35
f 36/42/36 67/84/67 63/79/63 37/43/37
f 44/50/44 100/65/100 9/12/9 3/4/3
f 23/28/23 7/10/7 1/2/1 48/58/48
f 70/86/70 69/87/69 62/199/62 63/200/63
f 72/88/72 71/89/71 64/201/64 65/202/65
f 73/90/73 72/88/72 65/202/65 66/203/66
f 69/87/69 73/91/73 66/204/66 62/199/62
f 71/89/71 74/92/74 67/205/67 64/201/64
f 74/92/74 70/86/70 63/200/63 67/205/67
f 154/93/154 75/94/75 58/213/58 68/219/68
f 75/94/75 78/95/78 61/217/61 58/213/58
f 77/97/77 60/215/60 59/214/59 76/96/76
f 158/98/158 141/216/141 60/215/60 77/97/77
f 76/96/76 59/214/59 61/218/61 78/99/78
f 79/100/79 81/103/81 80/102/80 68/101/68
f 81/103/81 83/105/83 82/104/82 80/102/80
f 85/107/85 84/106/84 86/108/86 139/175/139
f 79/100/79 88/110/88 87/109/87 81/103/81
f 87/109/87 89/111/89 83/105/83 81/103/81
f 86/108/86 84/106/84 90/112/90 91/114/91
f 49/113/49 86/108/86 91/114/91 44/171/44
f 92/115/92 87/109/87 88/110/88 54/116/54
f 96/120/96 95/119/95 91/114/91 90/112/90
f 97/121/97 95/119/95 96/120/96 110/137/110
f 97/121/97 102/126/102 101/125/101 99/123/99
f 103/127/103 98/122/98 99/123/99 101/125/101
f 104/128/104 92/115/92 54/116/54 55/129/55
f 105/130/105 106/131/106 104/128/104 55/129/55
f 106/131/106 108/133/108 107/132/107 104/128/104
f 93/136/93 94/135/94 110/137/110 96/120/96
f 111/138/111 112/139/112 108/133/108 106/131/106
f 113/140/113 115/142/115 111/138/111 114/141/114
f 116/143/116 117/144/117 115/142/115 113/140/113
f 117/144/117 45/145/45 103/127/103 101/125/101
f 118/146/118 45/145/45 117/144/117 116/143/116
f 56/147/56 114/141/114 111/138/111 57/148/57
f 105/130/105 57/148/57 111/138/111 106/131/106
f 101/125/101 102/126/102 112/139/112 117/144/117
f 119/149/119 102/126/102 110/137/110 120/150/120
f 107/132/107 122/152/122 121/151/121 109/134/109
f 120/150/120 110/137/110 94/135/94 123/154/123
f 122/152/122 108/133/108 112/139/112 124/155/124
f 124/155/124 112/139/112 102/126/102 119/149/119
f 126/157/126 125/156/125 127/158/127 132/164/132
f 128/159/128 130/161/130 129/160/129 133/165/133
f 135/167/135 134/166/134 133/165/133 129/160/129
f 135/167/135 127/158/127 125/156/125 134/166/134
f 136/168/136 119/149/119 120/150/120 132/164/132
f 137/169/137 130/161/130 121/151/121 122/152/122
f 130/161/130 131/162/131 123/153/123 121/151/121
f 131/163/131 132/164/132 120/150/120 123/154/123
f 138/170/138 137/169/137 122/152/122 124/155/124
f 119/149/119 136/168/136 138/170/138 124/155/124
f 99/123/99 100/124/100 95/119/95 97/121/97
f 85/107/85 82/172/82 83/173/83 84/106/84
f 89/174/89 90/112/90 84/106/84 83/173/83
f 89/174/89 93/136/93 96/120/96 90/112/90
f 139/175/139 86/108/86 140/176/140 141/177/141
f 104/128/104 107/132/107 109/134/109 92/115/92
f 138/170/138 135/167/135 129/160/129 137/169/137
f 127/158/127 135/167/135 138/170/138 136/168/136
f 125/156/125 126/157/126 142/178/142 143/179/143
f 128/159/128 133/165/133 144/180/144 145/181/145
f 146/182/146 131/162/131 128/159/128 145/181/145
f 146/183/146 142/178/142 126/157/126 131/163/131
f 144/180/144 133/165/133 134/166/134 147/184/147
f 134/166/134 125/156/125 143/179/143 147/184/147
f 95/119/95 100/124/100 44/171/44 91/114/91
f 87/109/87 92/115/92 93/117/93 89/111/89
f 148/185/148 143/207/143 142/206/142 149/186/149
f 150/187/150 145/209/145 144/208/144 151/188/151
f 152/189/152 146/210/146 145/209/145 150/187/150
f 149/186/149 142/206/142 146/211/146 152/190/152
f 151/188/151 144/208/144 147/212/147 153/191/153
f 153/191/153 147/212/147 143/207/143 148/185/148
f 154/192/154 68/220/68 80/221/80 155/193/155
f 82/222/82 156/194/156 155/193/155 80/221/80
f 85/223/85 139/225/139 157/195/157 159/197/159
f 139/225/139 141/226/141 158/196/158 157/195/157
f 82/224/82 85/223/85 159/197/159 156/198/156
f 7/10/7 23/28/23 16/21/16
f 98/51/98 46/56/46 100/65/100
f 16/21/16 50/61/50 7/10/7
f 18/23/18 17/22/17 21/26/21
f 30/36/30 50/61/50 16/21/16
f 34/40/34 39/45/39 41/47/41
f 33/39/33 41/69/41 38/44/38
f 6/8/6 140/59/140 49/60/49
f 30/36/30 28/34/28 50/61/50
f 29/35/29 13/18/13 12/16/12
f 38/44/38 43/49/43 51/62/51
f 52/63/52 40/46/40 39/45/39
f 18/23/18 22/27/22 17/22/17
f 19/24/19 10/13/10 11/14/11
f 92/115/92 94/118/94 93/117/93
f 98/122/98 100/124/100 99/123/99
f 94/118/94 92/115/92 109/134/109
f 115/142/115 117/144/117 112/139/112
f 123/153/123 94/118/94 109/134/109
f 128/159/128 131/162/131 130/161/130
f 126/157/126 132/164/132 131/163/131
f 86/108/86 49/113/49 140/176/140
f 123/153/123 109/134/109 121/151/121
f 122/152/122 107/132/107 108/133/108
f 132/164/132 127/158/127 136/168/136
f 129/160/129 130/161/130 137/169/137
f 115/142/115 112/139/112 111/138/111
f 102/126/102 97/121/97 110/137/110
# 160 faces

g
